<svg width="239" height="257" viewBox="0 0 239 257" fill="none" xmlns="http://www.w3.org/2000/svg">
<rect x="13" y="8" width="226" height="249" rx="10" fill="#D9D9D9"/>
<path fill-rule="evenodd" clip-rule="evenodd" d="M158.677 134.971C156.889 134.451 156.547 131.863 158.098 130.832C171.299 122.053 180 107.043 180 90C180 62.938 158.062 41 131 41C103.938 41 82 62.938 82 90C82 106.919 90.5748 121.835 103.616 130.64C105.159 131.682 104.799 134.267 103.006 134.775C67.5892 144.802 42 173.676 42 207.731C42 209.174 42.0459 210.607 42.1366 212.03C42.2023 213.063 43.0693 213.851 44.1036 213.851H216.896C217.931 213.851 218.798 213.063 218.863 212.03C218.954 210.607 219 209.174 219 207.731C219 173.895 193.74 145.174 158.677 134.971Z" fill="#C4BFBF"/>
<rect x="32" y="169" width="65.5614" height="37" rx="5" fill="#BADEFF"/>
<line x1="56.6667" y1="173.044" x2="72.8947" y2="173.044" stroke="#868686"/>
<line x1="36.5439" y1="181.482" x2="65.1053" y2="181.482" stroke="#868686"/>
<line x1="36.5439" y1="187.325" x2="65.1053" y2="187.325" stroke="#868686"/>
<line x1="36.5439" y1="193.167" x2="65.1053" y2="193.167" stroke="#868686"/>
<line x1="36.5439" y1="199.009" x2="65.1053" y2="199.009" stroke="#868686"/>
<rect x="74.193" y="180.035" width="18.1754" height="21.4211" fill="white"/>
<path d="M0 0H47L37.4944 74H8.18539L0 0Z" fill="#F24B4B"/>
<circle cx="23.5" cy="98.5" r="18.5" fill="#F24B4B"/>
<rect x="126" y="127" width="95" height="113" rx="5" fill="white"/>
<line x1="163" y1="141.5" x2="185" y2="141.5" stroke="#727070"/>
<line x1="138" y1="155.5" x2="174" y2="155.5" stroke="#727070"/>
<line x1="138" y1="169.5" x2="174" y2="169.5" stroke="#727070"/>
<line x1="138" y1="183.5" x2="174" y2="183.5" stroke="#727070"/>
<line x1="138" y1="197.5" x2="209" y2="197.5" stroke="#727070"/>
<line x1="138" y1="211.5" x2="209" y2="211.5" stroke="#727070"/>
<line x1="138" y1="225.5" x2="209" y2="225.5" stroke="#727070"/>
<rect x="182" y="154" width="27" height="30" rx="3" fill="#FF8989"/>
</svg>
