<svg width="101" height="101" viewBox="0 0 101 101" fill="none" xmlns="http://www.w3.org/2000/svg">
<path d="M100.469 50.4967C100.469 22.955 78.0834 0.686897 50.4692 0.759458C22.855 0.832019 0.469204 23.2178 0.469206 50.7594C0.469207 78.3011 22.855 100.569 50.4692 100.497C78.0834 100.424 100.469 78.0384 100.469 50.4967Z" fill="#D5CFFF"/>
<mask id="mask0_22_4" style="mask-type:luminance" maskUnits="userSpaceOnUse" x="0" y="0" width="101" height="101">
<path d="M100.469 50.4967C100.469 22.955 78.0834 0.686887 50.4692 0.759448C22.855 0.832009 0.469204 23.2178 0.469206 50.7594C0.469207 78.3011 22.855 100.569 50.4692 100.497C78.0834 100.424 100.469 78.0384 100.469 50.4967Z" fill="white"/>
</mask>
<g mask="url(#mask0_22_4)">
<path d="M70.3094 42.2802C75.622 32.6919 73.5512 16.4013 61.9474 12.3575C49.897 8.15779 39.5222 11.714 38.5892 18.1582C38.5892 18.1582 32.2145 16.6671 27.9908 23.4689C23.7671 30.2706 26.8022 41.7056 33.1162 48.6211C39.4303 55.5366 65.9886 50.0785 70.3094 42.2802Z" fill="#5B4852"/>
<path d="M94.0386 101.508H6.90607C6.90607 101.508 9.54801 86.9388 15.5367 78.5524C21.5254 70.1607 43.7511 67.1011 43.7511 67.1011L50.472 68.1346L57.1929 67.1011C57.1929 67.1011 79.4258 70.1607 85.4145 78.5524C91.4032 86.9388 94.0386 101.508 94.0386 101.508Z" fill="#D66572"/>
<mask id="mask1_22_4" style="mask-type:luminance" maskUnits="userSpaceOnUse" x="6" y="67" width="89" height="35">
<path d="M94.0386 101.508H6.90607C6.90607 101.508 9.54801 86.9388 15.5367 78.5524C21.5254 70.1607 43.7511 67.1011 43.7511 67.1011L50.472 68.1346L57.1929 67.1011C57.1929 67.1011 79.4258 70.1607 85.4145 78.5524C91.4032 86.9388 94.0386 101.508 94.0386 101.508Z" fill="white"/>
</mask>
<g mask="url(#mask1_22_4)">
<path d="M7.72305 72.3752H98.3197V80.256H1.18863V72.3752H7.72305Z" fill="#E28693"/>
<path d="M7.72305 84.3375H98.3197V92.2183H1.18863V84.3375H7.72305Z" fill="#E28693"/>
<path d="M7.72305 96.299H98.3197V104.18H1.18863V96.299H7.72305Z" fill="#E28693"/>
</g>
<path d="M37.4488 68.2041C37.4488 68.2041 41.4952 78.2306 50.5874 78.2306C59.6797 78.2306 63.1125 68.2041 63.1125 68.2041C63.1125 68.2041 50.8124 63.4753 37.4488 68.2041Z" fill="#F1B69A"/>
<path d="M50.3273 74.4995C47.0673 74.4995 44.4253 71.865 44.4253 68.6149V57.3749H56.2299V68.6149C56.2299 71.865 53.5874 74.4995 50.3273 74.4995Z" fill="#F1B69A"/>
<path d="M56.2299 56.0741V62.9753C56.2299 62.9753 54.2478 66.4113 50.3273 66.4113C47.1774 66.4113 44.4259 63.4323 44.4259 63.4323V56.0741H56.2299Z" fill="#150A08"/>
<path d="M33.8139 43.9931C30.6223 39.1589 26.9202 42.2647 26.9202 45.6675C26.9202 50.5953 32.2816 54.8392 35.3454 51.3025C38.4092 47.7651 33.8139 43.9931 33.8139 43.9931Z" fill="#F1B69A"/>
<path d="M33.1156 46.2259C31.1295 42.5247 28.3839 45.9782 29.4324 47.3491" stroke="#E07E61" stroke-miterlimit="10" stroke-linecap="round"/>
<path d="M65.6971 43.9931C68.8887 39.1589 72.5901 42.2647 72.5901 45.6675C72.5901 50.5953 67.2287 54.8392 64.1649 51.3025C61.1017 47.7651 65.6971 43.9931 65.6971 43.9931Z" fill="#F1B69A"/>
<path d="M66.3947 46.2259C68.3808 42.5247 71.1264 45.9782 70.0779 47.3491" stroke="#E07E61" stroke-miterlimit="10" stroke-linecap="round"/>
<path d="M49.7405 62.9753C37.1287 62.9701 29.671 49.2308 32.6194 35.1235C35.0481 23.4987 64.4622 23.5032 66.8909 35.1235C69.8393 49.2314 62.3581 62.9805 49.7405 62.9753Z" fill="#F1B69A"/>
<path d="M54.6592 30.3537C59.0857 22.5561 50.1675 17.0733 46.1544 19.4374C42.1413 21.8008 41.297 24.436 41.4313 27.5508C41.4313 27.5508 39.888 22.1057 36.3984 24.618C32.9095 27.1309 34.1138 34.1192 34.1138 34.1192L36.3984 35.3445L54.6592 30.3537Z" fill="#F1B69A"/>
<path opacity="0.5" d="M48.0655 48.8531C49.3636 49.4706 52.2872 48.101 52.3479 48.8531C52.4085 49.6052 50.7968 50.2708 50.2067 50.2708C49.6173 50.2708 48.0655 48.8531 48.0655 48.8531Z" fill="#F1B69A"/>
<path d="M48.1072 45.0623C46.2665 49.0286 49.0187 49.7983 49.7555 49.8938" stroke="#E07E61" stroke-miterlimit="10" stroke-linecap="round"/>
<path d="M45.3525 52.0499C50.221 52.982 54.0816 52.2053 55.6405 50.9618" stroke="#150A08" stroke-miterlimit="10" stroke-linecap="round"/>
<path d="M44.7676 34.2525C43.9793 32.4981 39.3611 33.3002 38.7085 34.5496C38.0552 35.7989 40.2166 36.1499 41.8205 36.0712C43.4245 35.9926 45.2697 35.3692 44.7676 34.2525Z" fill="#5B4852"/>
<path d="M54.7434 34.2525C55.5316 32.4981 60.1498 33.3002 60.8025 34.5496C61.4558 35.7989 59.2944 36.1499 57.6904 36.0712C56.0865 35.9926 54.2413 35.3692 54.7434 34.2525Z" fill="#5B4852"/>
<path opacity="0.5" d="M48.6197 54.442C50.3853 54.4465 52.9171 53.5307 53.3089 54.442C53.7008 55.3533 51.5453 57.1753 50.208 57.0453C48.8701 56.9153 46.603 54.4368 48.6197 54.442Z" fill="#F1B69A"/>
<path d="M41.4313 41.0153C41.4313 41.7141 41.9992 42.2802 42.7001 42.2802C43.401 42.2802 43.9689 41.7141 43.9689 41.0153C43.9689 40.3165 43.401 39.7504 42.7001 39.7504C41.9992 39.7504 41.4313 40.3165 41.4313 41.0153Z" fill="#150A08"/>
<path d="M58.0797 41.0153C58.0797 41.7141 57.5118 42.2802 56.8109 42.2802C56.11 42.2802 55.5421 41.7141 55.5421 41.0153C55.5421 40.3165 56.11 39.7504 56.8109 39.7504C57.5118 39.7504 58.0797 40.3165 58.0797 41.0153Z" fill="#150A08"/>
<path d="M41.4313 27.5509C41.8942 21.1463 50.8795 25.3565 55.8622 30.7028C61.7257 36.993 66.3465 38.1728 70.3087 35.3446C74.271 32.5164 69.0876 19.743 56.8109 16.9356C44.5342 14.1282 39.736 23.0769 41.4313 27.5509Z" fill="#5B4852"/>
<path d="M41.4313 27.5509C39.0782 22.9013 33.1162 31.5965 31.9772 39.7503C31.2925 44.6534 30.4475 38.2247 29.2015 36.993C27.9562 35.7612 28.1466 26.115 35.1459 23.9537C42.1452 21.793 41.4313 27.5509 41.4313 27.5509Z" fill="#5B4852"/>
</g>
</svg>
