<svg width="101" height="100" viewBox="0 0 101 100" fill="none" xmlns="http://www.w3.org/2000/svg">
<path d="M99.9042 49.3782C99.7796 22.1062 77.4723 0.275207 50.0793 0.617405C22.6864 0.959602 0.581066 23.3454 0.705654 50.6174C0.830242 77.8894 23.1376 99.7204 50.5305 99.3782C77.9234 99.036 100.029 76.6502 99.9042 49.3782Z" fill="#D5CFFF"/>
<mask id="mask0_14_498" style="mask-type:luminance" maskUnits="userSpaceOnUse" x="0" y="0" width="100" height="100">
<path d="M50.6982 99.377C78.0933 99.377 100.125 77.2691 99.9063 49.9976C99.6882 22.7262 77.3032 0.618286 49.9081 0.618286C22.513 0.618286 0.481798 22.7262 0.699975 49.9976C0.918151 77.2691 23.3031 99.377 50.6982 99.377Z" fill="white"/>
</mask>
<g mask="url(#mask0_14_498)">
<path d="M33.5654 22.0081C33.8796 21.2759 29.5114 22.6346 29.1401 22.809C26.9774 23.8227 25.3121 25.3225 24.3804 27.5384C23.4786 29.6832 23.3208 32.0601 23.3741 34.3819C23.5396 41.5255 29.0018 50.531 23.824 56.9C21.1497 60.1893 16.4634 61.0024 12.9263 63.3677C6.19025 67.8721 4.82877 77.8927 8.73273 84.9407C12.6367 91.9887 20.6069 96.1514 28.6538 97.3305C36.7006 98.5097 44.8942 97.0978 52.8288 95.3242C58.3409 94.0925 63.979 92.6068 68.468 89.2156C79.0482 81.2231 74.1165 71.2115 69.2614 61.8507C66.1495 55.851 71.7318 53.0266 74.1684 45.5797C78.5528 32.1807 72.2726 19.1772 60.2796 14.0413C40.628 5.62689 33.605 21.9158 33.5654 22.0081Z" fill="#D76A40"/>
<path d="M89.0954 99.1824H11.5193C11.5193 99.1824 15.1376 85.3909 20.2842 77.2208C25.4309 69.0456 44.3235 66.2654 44.3235 66.2654L50.307 67.2548L56.2906 66.2654C56.2906 66.2654 75.1897 69.0456 80.3363 77.2208C85.4836 85.3909 89.0954 99.1824 89.0954 99.1824Z" fill="#5B4850"/>
<path d="M33.0245 68.9923C42.1102 81.8168 59.2934 80.1811 67.5954 68.9923C67.5954 68.9923 50.94 61.3332 33.0245 68.9923Z" fill="#F1B69A"/>
<path d="M50.1629 73.5634C46.9167 73.5634 44.2859 70.9647 44.2859 67.7593V56.6711H56.0406V67.7593C56.0406 70.9647 53.4092 73.5634 50.1629 73.5634Z" fill="#F1B69A"/>
<path d="M56.0406 55.3883V62.1959C56.0406 62.1959 54.0669 65.5852 50.1629 65.5852C47.0264 65.5852 44.2865 62.6466 44.2865 62.6466V55.3883H56.0406Z" fill="#150A08"/>
<path d="M33.7193 43.4704C30.5412 38.7025 26.8554 41.7655 26.8547 45.1228C26.8547 49.9837 32.1935 54.1701 35.2444 50.6813C38.2952 47.1919 33.7193 43.4704 33.7193 43.4704Z" fill="#F1B69A"/>
<path d="M33.0246 45.6735C31.0469 42.0225 28.3129 45.4292 29.3569 46.7814" stroke="#E07E61" stroke-miterlimit="10" stroke-linecap="round"/>
<path d="M65.4678 43.4704C68.6459 38.7025 72.3317 41.7655 72.3317 45.1228C72.3317 49.9837 66.9929 54.1701 63.942 50.6813C60.8918 47.1919 65.4678 43.4704 65.4678 43.4704Z" fill="#F1B69A"/>
<path d="M66.1631 45.6735C68.1407 42.0225 70.8747 45.4292 69.8307 46.7814" stroke="#E07E61" stroke-miterlimit="10" stroke-linecap="round"/>
<path d="M49.5786 62.1958C37.0201 62.1907 29.5939 48.6378 32.5298 34.7219C34.9483 23.2548 64.2381 23.2593 66.6566 34.7219C69.5925 48.6384 62.143 62.201 49.5786 62.1958Z" fill="#F1B69A"/>
<path opacity="0.5" d="M47.9107 48.2652C49.2034 48.8744 52.1146 47.5234 52.175 48.2652C52.2354 49.0071 50.6298 49.6637 50.0428 49.6637C49.4559 49.6637 47.9107 48.2652 47.9107 48.2652Z" fill="#F1B69A"/>
<path d="M47.9522 44.5258C46.1193 48.4383 48.8598 49.1975 49.5935 49.2918" stroke="#E07E61" stroke-miterlimit="10" stroke-linecap="round"/>
<path d="M44.6267 33.8626C43.8418 32.1321 39.2431 32.9233 38.5932 34.1557C37.9427 35.388 40.095 35.7336 41.6921 35.6567C43.2893 35.5785 45.1267 34.9642 44.6267 33.8626Z" fill="#D76A40"/>
<path d="M54.5603 33.8626C55.3452 32.1321 59.9439 32.9233 60.5938 34.1557C61.2437 35.388 59.0921 35.7336 57.4949 35.6567C55.8978 35.5785 54.0604 34.9642 54.5603 33.8626Z" fill="#150A08"/>
<path d="M41.3045 40.5337C41.3045 41.2229 41.87 41.7814 42.568 41.7814C43.2659 41.7814 43.8314 41.2229 43.8314 40.5337C43.8314 39.8444 43.2659 39.2859 42.568 39.2859C41.87 39.2859 41.3045 39.8444 41.3045 40.5337Z" fill="#150A08"/>
<path d="M57.8825 40.5337C57.8825 41.2229 57.317 41.7814 56.6191 41.7814C55.9211 41.7814 55.3556 41.2229 55.3556 40.5337C55.3556 39.8444 55.9211 39.2859 56.6191 39.2859C57.317 39.2859 57.8825 39.8444 57.8825 40.5337Z" fill="#150A08"/>
<path d="M44.8929 51.3538C49.7 51.8642 52.9138 51.3422 55.1946 51.4192C55.1946 51.4192 52.3152 55.4356 48.93 54.6367C45.5448 53.8377 44.8929 51.3538 44.8929 51.3538Z" fill="white"/>
<path opacity="0.5" d="M48.2158 55.8043C49.974 55.8087 52.4951 54.9059 52.8853 55.8043C53.2755 56.7032 51.129 58.5005 49.7974 58.3722C48.4658 58.244 46.2083 55.7991 48.2158 55.8043Z" fill="#F1B69A"/>
<path d="M41.3045 22.493C41.2818 34.1768 63.7544 39.7905 68.1115 37.0282C72.4687 34.266 69.0718 24.3518 57.5949 21.6665C46.1174 18.9818 41.311 19.0139 41.3045 22.493Z" fill="#D76A40"/>
<path d="M41.3532 22.41C44.2171 28.0557 36.3481 40.5161 31.8767 39.6909C27.4059 38.8657 27.4059 33.9842 30.8931 28.1968C34.3809 22.41 39.9943 19.7311 41.3532 22.41Z" fill="#D76A40"/>
</g>
</svg>
