<svg width="101" height="101" viewBox="0 0 101 101" fill="none" xmlns="http://www.w3.org/2000/svg">
<path d="M100.526 50.5544C100.526 23.0128 78.1405 0.74464 50.5263 0.817196C22.9121 0.889752 0.526333 23.2755 0.526335 50.8172C0.526336 78.3589 22.9121 100.627 50.5263 100.554C78.1406 100.482 100.526 78.0961 100.526 50.5544Z" fill="#D5CFFF"/>
<mask id="mask0_14_531" style="mask-type:luminance" maskUnits="userSpaceOnUse" x="0" y="0" width="101" height="101">
<path d="M100.526 50.5544C100.526 23.0128 78.1406 0.744639 50.5263 0.817196C22.9121 0.889752 0.526333 23.2755 0.526335 50.8172C0.526336 78.3589 22.9121 100.627 50.5263 100.554C78.1406 100.482 100.526 78.0961 100.526 50.5544Z" fill="white"/>
</mask>
<g mask="url(#mask0_14_531)">
<path d="M69.4224 41.5902C76.3046 29.2356 70.8535 22.1529 66.4481 24.47C66.4481 24.47 65.7812 16.8089 55.6946 12.1902C44.0237 6.84617 28.9489 11.0118 26.0098 19.0623C23.2982 26.4908 28.1411 30.0708 28.1411 30.0708C28.1411 30.0708 25.1433 35.4096 30.2717 43.3971C35.4007 51.3845 66.3412 47.1221 69.4224 41.5902Z" fill="#5B4852"/>
<path d="M94.0902 101.586H6.96313C6.96313 101.586 9.60491 87.0182 15.5932 78.6324C21.5816 70.2413 43.8059 67.1819 43.8059 67.1819L50.5264 68.2153L57.2468 67.1819C57.2468 67.1819 79.4783 70.2413 85.4667 78.6324C91.455 87.0182 94.0902 101.586 94.0902 101.586Z" fill="#D88D48"/>
<path d="M43.8065 67.1819L35.2012 68.7906C35.2012 68.7906 37.1851 78.4939 45.0524 83.3446L50.3946 76.8183V69.8175L43.8065 67.1819Z" fill="white"/>
<path d="M56.6516 67.1819L65.2569 68.7906C65.2569 68.7906 63.273 78.4939 55.4057 83.3446L50.0635 76.8183V69.8175L56.6516 67.1819Z" fill="white"/>
<path d="M50.3816 74.5796C47.1218 74.5796 44.48 71.9452 44.48 68.6954V57.4562H56.2839V68.6954C56.2839 71.9452 53.6415 74.5796 50.3816 74.5796Z" fill="#F1B69A"/>
<path d="M56.2839 56.1558V63.0565C56.2839 63.0565 54.3019 66.4922 50.3816 66.4922C47.232 66.4922 44.4807 63.5134 44.4807 63.5134V56.1558H56.2839Z" fill="#150A08"/>
<path d="M33.8692 44.0753C30.6778 39.2415 26.9766 42.3471 26.976 45.7496C26.976 50.677 32.3371 54.9207 35.4007 51.3842C38.4643 47.8471 33.8692 44.0753 33.8692 44.0753Z" fill="#F1B69A"/>
<path d="M33.1716 46.308C31.1857 42.6071 28.4403 46.0604 29.4887 47.4312" stroke="#E07E61" stroke-miterlimit="10" stroke-linecap="round"/>
<path d="M65.7505 44.0753C68.9419 39.2415 72.6431 42.3471 72.6431 45.7496C72.6431 50.677 67.2819 54.9207 64.2183 51.3842C61.1554 47.8471 65.7505 44.0753 65.7505 44.0753Z" fill="#F1B69A"/>
<path d="M66.4488 46.308C68.4347 42.6071 71.1801 46.0604 70.1317 47.4312" stroke="#E07E61" stroke-miterlimit="10" stroke-linecap="round"/>
<path d="M49.7949 63.0565C37.1838 63.0513 29.7266 49.3129 32.6748 35.2067C35.1034 23.5826 64.5157 23.5872 66.9442 35.2067C69.8924 49.3136 62.4118 63.0617 49.7949 63.0565Z" fill="#F1B69A"/>
<path opacity="0.5" d="M48.12 48.9352C49.418 49.5527 52.3415 48.1832 52.4021 48.9352C52.4627 49.6872 50.8504 50.3528 50.261 50.3528C49.6717 50.3528 48.12 48.9352 48.12 48.9352Z" fill="#F1B69A"/>
<path d="M48.1617 45.1448C46.3212 49.1109 49.0731 49.8804 49.8098 49.976" stroke="#E07E61" stroke-miterlimit="10" stroke-linecap="round"/>
<path d="M45.4071 52.1317C50.2754 53.0638 54.1357 52.2871 55.6945 51.0437" stroke="#150A08" stroke-miterlimit="10" stroke-linecap="round"/>
<path d="M44.8223 34.3357C44.0341 32.5814 39.4162 33.3835 38.7636 34.6327C38.1103 35.882 40.2716 36.2329 41.8754 36.1543C43.4792 36.0756 45.3243 35.4523 44.8223 34.3357Z" fill="#150A08"/>
<path d="M54.7974 34.3357C55.5857 32.5814 60.2036 33.3835 60.8562 34.6327C61.5088 35.882 59.3482 36.2329 57.7443 36.1543C56.1405 36.0756 54.2954 35.4523 54.7974 34.3357Z" fill="#150A08"/>
<path opacity="0.5" d="M48.6741 54.5236C50.4396 54.5282 52.9712 53.6124 53.3631 54.5236C53.7549 55.4349 51.5995 57.2567 50.2623 57.1267C48.9245 56.9967 46.6576 54.5184 48.6741 54.5236Z" fill="#F1B69A"/>
<path d="M41.4862 41.098C41.4862 41.7967 42.054 42.3628 42.7549 42.3628C43.4558 42.3628 44.0236 41.7967 44.0236 41.098C44.0236 40.3993 43.4558 39.8331 42.7549 39.8331C42.054 39.8331 41.4862 40.3993 41.4862 41.098Z" fill="#150A08"/>
<path d="M58.1335 41.098C58.1335 41.7967 57.5657 42.3628 56.8648 42.3628C56.1639 42.3628 55.5961 41.7967 55.5961 41.098C55.5961 40.3993 56.1639 39.8331 56.8648 39.8331C57.5657 39.8331 58.1335 40.3993 58.1335 41.098Z" fill="#150A08"/>
<path d="M60.9755 26.4908C57.7065 33.8003 50.5505 29.6379 50.5505 29.6379C50.5505 29.6379 45.8576 34.0206 38.6436 33.3219C31.4296 32.6226 27.6716 24.0007 36.4537 20.3525C45.2357 16.7042 65.5725 16.2141 60.9755 26.4908Z" fill="#5B4852"/>
</g>
</svg>
