<svg width="101" height="101" viewBox="0 0 101 101" fill="none" xmlns="http://www.w3.org/2000/svg">
<path d="M100.469 50.7756C100.469 23.234 78.0834 0.965881 50.4692 1.03844C22.855 1.111 0.469204 23.4967 0.469206 51.0384C0.469207 78.5801 22.855 100.848 50.4692 100.776C78.0834 100.703 100.469 78.3173 100.469 50.7756Z" fill="#D4CFFF"/>
<mask id="mask0_14_462" style="mask-type:luminance" maskUnits="userSpaceOnUse" x="0" y="1" width="101" height="100">
<path d="M100.469 50.7756C100.469 23.234 78.0834 0.965871 50.4692 1.03843C22.855 1.11099 0.469204 23.4967 0.469206 51.0384C0.469207 78.5801 22.855 100.848 50.4692 100.776C78.0834 100.703 100.469 78.3173 100.469 50.7756Z" fill="white"/>
</mask>
<g mask="url(#mask0_14_462)">
<path d="M70.3055 41.7476C70.7098 36.1887 74.9504 20.7262 65.7969 21.776C64.6115 13.7243 57.045 9.64935 49.7542 10.0212C29.9794 11.0293 26.9202 29.0379 30.0198 41.747C35.0377 55.0716 60.824 44.6545 70.3029 41.7684C70.3042 41.7619 70.3049 41.7548 70.3055 41.7476Z" fill="#D76A40"/>
<path d="M94.0387 101.797H6.90678C6.90678 101.797 9.54872 87.2278 15.5374 78.8413C21.5261 70.4496 43.7518 67.39 43.7518 67.39L50.4727 68.4235L57.1936 67.39C57.1936 67.39 79.4265 70.4496 85.4152 78.8413C91.4039 87.2278 94.0387 101.797 94.0387 101.797Z" fill="#5B4850"/>
<path d="M38.5892 68.016C44.5095 66.6575 49.5495 67.054 50.358 67.132C50.358 67.132 50.358 67.132 50.3645 67.132C51.173 67.054 56.213 66.6575 62.1333 68.016C62.6972 73.3006 60.5085 79.9561 50.4728 79.9866C40.3125 80.0178 38.0155 73.3656 38.5892 68.016Z" fill="white"/>
<path d="M50.328 74.7884C47.0679 74.7884 44.426 72.1539 44.426 68.9038V57.6638H56.2306V68.9038C56.23 72.1539 53.588 74.7884 50.328 74.7884Z" fill="#F1B69A"/>
<path d="M56.2306 57.0055V63.9067C56.2306 63.9067 54.2485 67.3427 50.328 67.3427C47.1781 67.3427 44.4266 64.3636 44.4266 64.3636V57.0055H56.2306Z" fill="#150A08"/>
<path d="M33.8139 44.2822C30.6223 39.448 26.9202 42.5538 26.9202 45.9566C26.9202 50.8843 32.2817 55.1283 35.3455 51.5916C38.4099 48.0542 33.8139 44.2822 33.8139 44.2822Z" fill="#F1B69A"/>
<path d="M33.1162 46.5149C31.1302 42.8138 28.3846 46.2673 29.433 47.6382" stroke="#E07E61" stroke-miterlimit="10" stroke-linecap="round"/>
<path d="M65.6978 44.2822C68.8894 39.448 72.5915 42.5538 72.5915 45.9566C72.5915 50.8843 67.23 55.1283 64.1662 51.5916C61.1024 48.0542 65.6978 44.2822 65.6978 44.2822Z" fill="#F1B69A"/>
<path d="M66.3954 46.5149C68.3815 42.8138 71.1271 46.2673 70.0786 47.6382" stroke="#E07E61" stroke-miterlimit="10" stroke-linecap="round"/>
<path d="M49.7412 63.2645C37.1294 63.2593 29.6717 49.52 32.6201 35.4127C35.0488 23.7879 64.4629 23.7924 66.8916 35.4127C69.8393 49.5206 62.3589 63.2697 49.7412 63.2645Z" fill="#F1B69A"/>
<path d="M68.3527 40.0374C68.3527 40.0374 68.1898 52.6997 63.4496 58.6213C58.7154 64.5429 50.3286 64.9258 50.3286 64.9258C50.3286 64.9258 40.9312 64.5429 36.197 58.6213C31.4627 52.6997 31.2939 40.0374 31.2939 40.0374L31.9511 38.7634C32.431 42.1578 34.6589 50.9531 37.336 52.8967C41.7208 51.4341 45.0024 51.271 50.0098 51.271C55.3634 51.271 58.776 51.8449 62.4964 52.3103C64.6513 50.4195 67.2613 41.8555 67.6955 38.7634L68.3527 40.0374Z" fill="#D76A40"/>
<path opacity="0.5" d="M48.0661 49.1423C49.3643 49.7598 52.2879 48.3902 52.3485 49.1423C52.4092 49.8943 50.7968 50.56 50.2073 50.56C49.6173 50.56 48.0661 49.1423 48.0661 49.1423Z" fill="#F1B69A"/>
<path d="M48.1072 45.3514C46.2666 49.3178 49.0187 50.0874 49.7555 50.183" stroke="#E07E61" stroke-miterlimit="10" stroke-linecap="round"/>
<path d="M45.168 52.8973C49.9954 53.4147 53.2229 52.8856 55.5134 52.9636C55.5134 52.9636 52.6217 57.0353 49.2222 56.2254C45.8232 55.4155 45.168 52.8973 45.168 52.8973Z" fill="white"/>
<path d="M44.7683 34.5417C43.98 32.7873 39.3618 33.5894 38.7092 34.8387C38.0565 36.0881 40.2173 36.4391 41.8212 36.3604C43.4251 36.2818 45.2697 35.6584 44.7683 34.5417Z" fill="#D76A40"/>
<path d="M54.7434 34.5417C55.5316 32.7873 60.1498 33.5894 60.8025 34.8387C61.4551 36.0881 59.2944 36.4391 57.6904 36.3604C56.0872 36.2818 54.242 35.6584 54.7434 34.5417Z" fill="#D76A40"/>
<path opacity="0.5" d="M48.505 57.409C50.2706 57.4136 52.8023 56.4977 53.1942 57.409C53.5861 58.3203 51.4305 60.1423 50.0933 60.0117C48.756 59.8817 46.4889 57.4038 48.505 57.409Z" fill="#F1B69A"/>
<path d="M41.4313 41.3044C41.4313 42.0031 41.9992 42.5693 42.7001 42.5693C43.401 42.5693 43.9689 42.0031 43.9689 41.3044C43.9689 40.6056 43.401 40.0394 42.7001 40.0394C41.9998 40.0394 41.4313 40.6056 41.4313 41.3044Z" fill="#150A08"/>
<path d="M56.8116 42.5693C57.5123 42.5693 58.0804 42.003 58.0804 41.3044C58.0804 40.6058 57.5123 40.0394 56.8116 40.0394C56.1108 40.0394 55.5428 40.6058 55.5428 41.3044C55.5428 42.003 56.1108 42.5693 56.8116 42.5693Z" fill="#150A08"/>
<path d="M40.0934 26.9182L43.032 26.2078C43.032 26.2078 39.2054 32.3309 47.3581 33.5055C55.5108 34.68 64.0039 29.1777 57.2328 26.3709L59.6941 26.2078L53.7712 21.6785L40.0934 26.9182Z" fill="#D76A40"/>
</g>
</svg>
