<svg width="101" height="101" viewBox="0 0 101 101" fill="none" xmlns="http://www.w3.org/2000/svg">
<path d="M100.469 50.7806C100.469 23.2382 78.0834 0.968736 50.4692 1.04026C22.855 1.11179 0.469204 23.4972 0.469206 51.0396C0.469207 78.5819 22.855 100.851 50.4692 100.78C78.0834 100.708 100.469 78.3229 100.469 50.7806Z" fill="#D4CFFF"/>
<mask id="mask0_14_341" style="mask-type:luminance" maskUnits="userSpaceOnUse" x="0" y="1" width="101" height="100">
<path d="M100.469 50.7806C100.469 23.2382 78.0834 0.968749 50.4692 1.04028C22.855 1.1118 0.469204 23.4973 0.469206 51.0396C0.469207 78.5819 22.855 100.851 50.4692 100.78C78.0834 100.708 100.469 78.3229 100.469 50.7806Z" fill="white"/>
</mask>
<g mask="url(#mask0_14_341)">
<path d="M31.6596 43.7948C21.2927 30.5856 30.0818 16.4617 38.061 12.0097C49.7548 5.48534 69.3901 7.47898 71.9466 12.4543C74.1693 16.7809 70.3094 20.6564 70.3094 20.6564C70.3094 20.6564 76.184 22.2119 75.9649 27.4914C75.7459 32.771 69.1091 35.3743 69.1091 35.3743C69.1091 35.3743 75.9447 39.5605 63.4516 47.5715C50.9584 55.5831 33.8804 46.6251 31.6596 43.7948Z" fill="#D88D48"/>
<path d="M94.0386 101.794H6.90672C6.90672 101.794 9.54866 87.2252 15.5374 78.8385C21.5261 70.4467 43.7518 67.387 43.7518 67.387L50.4727 68.4205L57.1936 67.387C57.1936 67.387 79.4265 70.4467 85.4152 78.8385C91.4032 87.2252 94.0386 101.794 94.0386 101.794Z" fill="#9FC9C1"/>
<path d="M71.9929 70.2081C70.9816 77.623 64.7008 82.0646 59.2057 84.5692C53.7399 87.0608 47.4871 87.0608 42.0213 84.5686C36.5282 82.064 30.248 77.6223 29.2335 70.2081L33.1129 69.4866C33.9873 75.8829 39.6493 79.5757 44.3001 81.5583C48.3373 83.2795 52.8884 83.2795 56.9256 81.5589C61.5777 79.5763 67.2417 75.8835 68.1121 69.4866L71.9929 70.2081Z" fill="#79B2A7"/>
<path d="M68.1134 69.4866C67.2058 76.1546 61.0906 79.8844 56.3414 81.8014C52.6654 83.2854 48.5623 83.2854 44.8863 81.8007C40.139 79.8831 34.0244 76.1533 33.1136 69.4859C39.8945 67.2563 49.2573 66.2943 49.4203 66.2813C50.1897 66.2293 50.6135 66.2228 50.6135 66.2228C50.6135 66.2228 51.0373 66.2293 51.8067 66.2813C51.9697 66.2949 61.3325 67.257 68.1134 69.4866Z" fill="#F1B69A"/>
<path d="M50.3279 74.7857C47.0679 74.7857 44.4253 72.1511 44.4253 68.9009V57.6606H56.2299V68.9009C56.2299 72.1511 53.5873 74.7857 50.3279 74.7857Z" fill="#F1B69A"/>
<path d="M56.2306 56.36V63.2613C56.2306 63.2613 54.2485 66.6974 50.3279 66.6974C47.1781 66.6974 44.4266 63.7183 44.4266 63.7183V56.36H56.2306Z" fill="#150A08"/>
<path d="M33.8138 44.2784C30.6223 39.4442 26.9208 42.55 26.9208 45.9529C26.9208 50.8808 32.2823 55.1248 35.3461 51.588C38.4092 48.0506 33.8138 44.2784 33.8138 44.2784Z" fill="#F1B69A"/>
<path d="M33.1162 46.5113C31.1302 42.81 28.3846 46.2637 29.433 47.6346" stroke="#E07E61" stroke-miterlimit="10" stroke-linecap="round"/>
<path d="M65.6977 44.2784C68.8893 39.4442 72.5908 42.55 72.5908 45.9529C72.5908 50.8808 67.2293 55.1248 64.1655 51.588C61.1017 48.0506 65.6977 44.2784 65.6977 44.2784Z" fill="#F1B69A"/>
<path d="M66.3954 46.5113C68.3814 42.81 71.127 46.2637 70.0786 47.6346" stroke="#E07E61" stroke-miterlimit="10" stroke-linecap="round"/>
<path d="M49.7405 63.2612C37.1287 63.256 29.671 49.5164 32.6194 35.4088C35.0481 23.7837 64.4622 23.7882 66.8909 35.4088C69.8393 49.517 62.3588 63.2664 49.7405 63.2612Z" fill="#F1B69A"/>
<path opacity="0.5" d="M48.0655 49.1387C49.3636 49.7563 52.2872 48.3867 52.3479 49.1387C52.4085 49.8908 50.7961 50.5565 50.2067 50.5565C49.6172 50.5565 48.0655 49.1387 48.0655 49.1387Z" fill="#F1B69A"/>
<path d="M48.1072 45.3478C46.2672 49.3143 49.0187 50.0839 49.7555 50.1794" stroke="#E07E61" stroke-miterlimit="10" stroke-linecap="round"/>
<path d="M45.3524 52.3356C50.221 53.2677 54.0815 52.4909 55.6405 51.2474" stroke="#150A08" stroke-miterlimit="10" stroke-linecap="round"/>
<path d="M44.7682 34.5378C43.98 32.7834 39.3618 33.5855 38.7091 34.8349C38.0565 36.0842 40.2172 36.4352 41.8212 36.3566C43.4245 36.2779 45.2696 35.6546 44.7682 34.5378Z" fill="#D88D48"/>
<path d="M54.5588 35.9594C55.3471 34.205 59.9653 35.0071 60.6179 36.2565C61.2706 37.5059 59.1098 37.8569 57.5059 37.7782C55.9026 37.6989 54.0574 37.0762 54.5588 35.9594Z" fill="#D88D48"/>
<path opacity="0.5" d="M48.6197 54.7278C50.3853 54.7323 52.917 53.8164 53.3089 54.7278C53.7008 55.6391 51.5452 57.4611 50.208 57.3311C48.8707 57.2011 46.6036 54.7226 48.6197 54.7278Z" fill="#F1B69A"/>
<path d="M41.4313 41.3007C41.4313 41.9995 41.9992 42.5657 42.7001 42.5657C43.401 42.5657 43.9689 41.9995 43.9689 41.3007C43.9689 40.6019 43.401 40.0358 42.7001 40.0358C41.9992 40.0358 41.4313 40.6019 41.4313 41.3007Z" fill="#150A08"/>
<path d="M58.0797 41.3007C58.0797 41.9995 57.5118 42.5657 56.8109 42.5657C56.1099 42.5657 55.5421 41.9995 55.5421 41.3007C55.5421 40.6019 56.1099 40.0358 56.8109 40.0358C57.5118 40.0358 58.0797 40.6019 58.0797 41.3007Z" fill="#150A08"/>
<path d="M41.147 22.6891C40.8412 30.7371 59.2474 35.0592 64.129 34.3162C69.0106 33.5732 70.477 27.238 62.8185 22.0397C55.16 16.8408 41.2826 19.1153 41.147 22.6891Z" fill="#D88D48"/>
</g>
</svg>
