<svg width="94" height="65" viewBox="0 0 94 65" fill="none" xmlns="http://www.w3.org/2000/svg">
<path fill-rule="evenodd" clip-rule="evenodd" d="M69.9637 64.7194H18.7891C18.7393 64.7194 18.6989 64.679 18.6989 64.6292C18.6989 64.5835 18.6644 64.545 18.619 64.5395C8.35388 63.3026 0.461182 55.8348 0.461182 46.8072C0.461182 38.831 6.62244 32.0725 15.1375 29.7533C15.6177 29.6225 15.9439 29.1723 15.9166 28.6754C15.5173 21.4052 18.1389 13.9414 23.7595 8.32081C34.1112 -2.03093 50.7157 -2.20996 60.8466 7.92095C64.6375 11.7118 66.9848 16.4091 67.8957 21.3461C67.9935 21.8763 68.4783 22.25 69.0162 22.2125C71.5294 22.0375 74.1281 22.2712 76.7174 22.965C88.6602 26.1651 95.8812 37.942 92.846 49.2696C90.5864 57.7026 83.2795 63.5092 74.765 64.6057C74.7365 64.6093 74.7151 64.6336 74.7151 64.6623C74.7151 64.6938 74.6895 64.7194 74.658 64.7194H73.6786C72.4576 64.8178 71.2157 64.8198 69.9637 64.7194Z" fill="white"/>
<path fill-rule="evenodd" clip-rule="evenodd" d="M60.194 42.0559C61.0387 42.0559 61.5029 41.0732 60.9664 40.4207L47.9006 24.5312C47.5006 24.0447 46.7558 24.0447 46.3558 24.5312L33.29 40.4207C32.7535 41.0732 33.2177 42.0559 34.0624 42.0559H39.0411C39.5933 42.0559 40.0411 42.5036 40.0411 43.0559V52.4327C40.0411 52.985 40.4888 53.4327 41.0411 53.4327H53.2154C53.7677 53.4327 54.2154 52.985 54.2154 52.4327V43.0559C54.2154 42.5036 54.6632 42.0559 55.2154 42.0559H60.194Z" fill="#C4BFBF"/>
</svg>
